<svg width="45" height="45" viewBox="0 0 45 45" fill="none" xmlns="http://www.w3.org/2000/svg" style="transform:scale(undefined)"><rect width="45" height="45" rx="15.393" fill="url(#paint0_linear_1213_4511)"></rect><mask id="path-2-outside-1_1213_4511" maskUnits="userSpaceOnUse" x="1.85867" y="7.13632" width="40" height="30" fill="black"><rect fill="white" x="1.85867" y="7.13632" width="40" height="30"></rect><path d="M12.8602 23.7031C12.7055 23.6368 12.5264 23.7085 12.4601 23.8632C12.3938 24.0179 12.4654 24.197 12.6201 24.2633C14.3731 25.0146 16.5097 25.2394 17.4913 25.1502C17.659 25.1349 17.7825 24.9867 17.7672 24.8191C17.752 24.6515 17.6038 24.5279 17.4362 24.5432C16.5555 24.6232 14.5204 24.4146 12.8602 23.7031Z"></path><path d="M31.5514 24.2633C31.7061 24.197 31.7777 24.0179 31.7114 23.8632C31.6451 23.7085 31.466 23.6368 31.3113 23.7031C29.6511 24.4146 27.616 24.6232 26.7353 24.5432C26.5677 24.5279 26.4195 24.6515 26.4042 24.8191C26.389 24.9867 26.5125 25.1349 26.6802 25.1502C27.6618 25.2394 29.7984 25.0146 31.5514 24.2633Z"></path><path d="M19.9086 27.411C20.0072 27.2745 20.1977 27.2438 20.3341 27.3423L21.9842 28.534L23.6342 27.3423C23.7707 27.2438 23.9612 27.2745 24.0597 27.411C24.1582 27.5474 24.1275 27.7379 23.9911 27.8364L22.2889 29.0658V30.7384C22.2889 30.9068 22.1525 31.0432 21.9842 31.0432C21.8159 31.0432 21.6794 30.9068 21.6794 30.7384V29.0658L19.9773 27.8364C19.8408 27.7379 19.8101 27.5474 19.9086 27.411Z"></path><path fill-rule="evenodd" clip-rule="evenodd" d="M29.8026 11.6514C29.5908 11.8187 29.3767 12.0134 29.1655 12.2244L22.1898 8.18037C22.1795 8.17418 22.1689 8.16862 22.1581 8.1637C22.1174 8.14512 22.0743 8.13625 22.0317 8.13632C21.9892 8.13631 21.9463 8.14519 21.9057 8.16371C21.8947 8.1687 21.884 8.17434 21.8736 8.18063L14.7933 12.2994C14.5581 12.0595 14.3185 11.8384 14.0818 11.6514C13.703 11.352 13.2896 11.1058 12.8855 11.0456C12.6755 11.0144 12.458 11.032 12.253 11.1284C12.0478 11.2248 11.8838 11.3866 11.7585 11.5955C11.2611 12.4244 11.1132 13.4492 11.1813 14.4006L3.53501 18.8485L3.52726 18.8537C3.47867 18.8861 3.42837 18.9159 3.37484 18.9467C3.36539 18.9522 3.35562 18.9578 3.34563 18.9635C3.30224 18.9884 3.25479 19.0157 3.21181 19.0425C3.11773 19.1013 2.96322 19.2047 2.89405 19.3815C2.81386 19.5864 2.88122 19.7841 2.98416 19.9466C3.08611 20.1076 3.25564 20.2883 3.49216 20.5017C4.07684 21.0292 5.56383 21.9219 8.46884 22.7154C8.87626 22.8266 9.31192 22.9361 9.77731 23.0423C8.78131 24.8682 8.15208 27.6516 9.07706 30.1204C10.0634 32.7528 12.7624 34.8978 18.2849 35.2075L18.2948 35.2081H19.0767C19.7853 35.6955 20.7223 35.9883 21.9072 36.0182V36.0207C21.9412 36.0207 21.9751 36.0205 22.0088 36.0201C22.0424 36.0205 22.0763 36.0207 22.1104 36.0207V36.0182C23.2952 35.9883 24.2322 35.6955 24.9409 35.2081H25.6287L25.6386 35.2075C31.1611 34.8978 33.8602 32.7528 34.8465 30.1204C35.7636 27.6726 35.1528 24.9155 34.1715 23.089C37.9424 22.1691 39.8189 20.9938 40.5449 20.4868C40.8084 20.3028 41.0001 20.1353 41.1149 19.9721C41.2381 19.797 41.2947 19.5897 41.2049 19.3808C41.1313 19.2097 40.9802 19.0984 40.8764 19.029C40.8206 18.9917 40.7608 18.9556 40.7066 18.9229L40.7065 18.9229L40.7063 18.9228L40.7061 18.9226L40.701 18.9196C40.6431 18.8846 40.5899 18.8524 40.5391 18.8187L40.5314 18.8135L32.7106 14.2796C32.7581 13.363 32.6023 12.3893 32.126 11.5955C32.0006 11.3866 31.8366 11.2248 31.6314 11.1284C31.4264 11.032 31.2089 11.0144 30.9989 11.0456C30.5948 11.1058 30.1814 11.352 29.8026 11.6514ZM15.2182 12.7574L22.0322 8.79352L28.7354 12.6796C28.3378 13.1231 27.9648 13.5999 27.6551 14.0295C27.3259 14.4861 27.6032 15.0631 28.057 15.2232C29.2447 15.6422 30.1538 16.4928 30.6326 17.0902C30.7593 17.2483 30.9438 17.357 31.1449 17.3819C31.3541 17.4077 31.5821 17.3404 31.7426 17.1488C32.1809 16.6255 32.5005 15.8145 32.6403 14.9434L40.2098 19.3316C40.2707 19.3718 40.332 19.4087 40.386 19.4413L40.3862 19.4415C40.4449 19.4769 40.494 19.5065 40.5376 19.5356C40.5851 19.5674 40.6125 19.5902 40.6277 19.6044C40.6247 19.6093 40.621 19.6149 40.6163 19.6215C40.5639 19.696 40.4431 19.8145 40.196 19.9871C39.0387 20.7952 34.3501 23.7132 22.0824 23.7292C15.7826 23.6022 11.4812 22.9063 8.62943 22.1274C5.76965 21.3463 4.38541 20.4867 3.90044 20.0492C3.67423 19.8451 3.55526 19.7092 3.49902 19.6205C3.4926 19.6103 3.48746 19.6016 3.48335 19.5941C3.49536 19.5852 3.51202 19.5736 3.53481 19.5594C3.56715 19.5392 3.60191 19.5192 3.64424 19.4949C3.65537 19.4885 3.66708 19.4818 3.67936 19.4747C3.73303 19.4437 3.79441 19.4077 3.8573 19.3662L11.2636 15.0578C11.4122 15.8852 11.7228 16.6485 12.1418 17.1488C12.3024 17.3404 12.5303 17.4077 12.7395 17.3819C12.9407 17.357 13.1251 17.2483 13.2519 17.0902C13.7306 16.4928 14.6397 15.6422 15.8274 15.2232C16.2813 15.0631 16.5585 14.4861 16.2294 14.0295C15.9376 13.6249 15.5898 13.1785 15.2182 12.7574ZM9.74293 29.8709C8.88 27.5677 9.51703 24.894 10.5043 23.2005C13.2763 23.7749 17.0012 24.2297 21.9387 24.3358C21.9526 24.3378 21.9667 24.3388 21.9811 24.3388C22.013 24.3388 22.0449 24.3387 22.0767 24.3387L22.0789 24.3387L22.0817 24.3388C22.0844 24.3388 22.0871 24.3387 22.0898 24.3387C26.9718 24.3319 30.6766 23.8689 33.4514 23.2563C34.4202 24.9523 35.0341 27.5928 34.1806 29.8709C33.3322 32.1353 30.9813 34.167 25.7188 34.4905C25.7871 34.4063 25.8516 34.3193 25.9123 34.2295C26.6306 33.1677 26.7776 31.7906 26.5676 30.4583C26.3571 29.1224 25.7816 27.7855 24.9924 26.7652C24.2287 25.7779 23.2235 25.0374 22.1104 24.9557V24.9482C22.0764 24.9482 22.0426 24.9489 22.0088 24.9501C21.975 24.9489 21.9411 24.9482 21.9072 24.9482V24.9557C20.794 25.0374 19.7888 25.7779 19.0252 26.7652C18.2359 27.7855 17.6605 29.1224 17.4499 30.4583C17.24 31.7906 17.387 33.1677 18.1052 34.2295C18.1673 34.3214 18.2334 34.4104 18.3035 34.4963C12.9716 34.1923 10.5967 32.1495 9.74293 29.8709ZM40.6396 19.5823L40.6398 19.5816C40.6399 19.5812 40.64 19.5809 40.64 19.5809L40.64 19.5811L40.6399 19.5816L40.6396 19.5823ZM3.46775 19.5586L3.46782 19.5588L3.46795 19.5592C3.46807 19.5597 3.46822 19.5604 3.46836 19.5614C3.46778 19.5595 3.46775 19.5586 3.46775 19.5586ZM12.5554 11.7719C12.5014 11.7973 12.4355 11.8492 12.3682 11.9613C11.9405 12.6741 11.8121 13.6148 11.9055 14.5214C11.9979 15.4174 12.3002 16.216 12.6686 16.6699L12.6696 16.6693C12.6789 16.664 12.6886 16.656 12.697 16.6455C13.2286 15.9822 14.2394 15.0294 15.5909 14.5526C15.6224 14.5415 15.6455 14.5168 15.6553 14.4903C15.6599 14.478 15.6603 14.4685 15.6597 14.4626C15.6591 14.4577 15.6577 14.4525 15.6526 14.4454C15.0856 13.6591 14.3318 12.7551 13.641 12.2093C13.29 11.932 12.997 11.7811 12.7808 11.749C12.6808 11.7341 12.6097 11.7464 12.5554 11.7719ZM31.329 11.7719C31.3831 11.7973 31.4489 11.8492 31.5162 11.9613C31.9439 12.6741 32.0724 13.6148 31.9789 14.5214C31.8866 15.4174 31.5842 16.216 31.2159 16.6699L31.2148 16.6693C31.2056 16.664 31.1958 16.656 31.1874 16.6455C30.6558 15.9822 29.6451 15.0294 28.2935 14.5526C28.2621 14.5415 28.2389 14.5168 28.2291 14.4903C28.2246 14.478 28.2241 14.4685 28.2248 14.4626C28.2253 14.4577 28.2268 14.4525 28.2319 14.4454C28.7988 13.6591 29.5526 12.7551 30.2434 12.2093C30.5944 11.932 30.8874 11.7811 31.1036 11.749C31.2037 11.7341 31.2748 11.7464 31.329 11.7719ZM19.5876 27.2003C20.3033 26.275 21.1621 25.704 22.0088 25.6619C22.8555 25.704 23.7143 26.275 24.4299 27.2003C25.144 28.1234 25.6728 29.3481 25.8652 30.569C26.0582 31.7935 25.9069 32.9684 25.3233 33.8311C24.7517 34.6762 23.7217 35.2857 22.0088 35.309C20.2959 35.2857 19.2658 34.6762 18.6942 33.8311C18.1107 32.9684 17.9594 31.7935 18.1524 30.569C18.3448 29.3481 18.8736 28.1234 19.5876 27.2003Z"></path><path fill-rule="evenodd" clip-rule="evenodd" d="M22.0088 25.6619C21.1621 25.704 20.3033 26.275 19.5876 27.2003C18.8736 28.1234 18.3448 29.3481 18.1524 30.569C17.9594 31.7935 18.1107 32.9684 18.6942 33.8311C19.2658 34.6762 20.2959 35.2857 22.0088 35.309C23.7217 35.2857 24.7517 34.6762 25.3233 33.8311C25.9069 32.9684 26.0582 31.7935 25.8652 30.569C25.6728 29.3481 25.144 28.1234 24.4299 27.2003C23.7143 26.275 22.8555 25.704 22.0088 25.6619ZM19.9086 27.411C20.0072 27.2745 20.1977 27.2438 20.3341 27.3423L21.9842 28.534L23.6342 27.3423C23.7707 27.2438 23.9612 27.2745 24.0597 27.411C24.1582 27.5474 24.1275 27.7379 23.9911 27.8364L22.2889 29.0658V30.7384C22.2889 30.9068 22.1525 31.0432 21.9842 31.0432C21.8159 31.0432 21.6794 30.9068 21.6794 30.7384V29.0658L19.9773 27.8364C19.8408 27.7379 19.8101 27.5474 19.9086 27.411Z"></path><path fill-rule="evenodd" clip-rule="evenodd" d="M10.5043 23.2005C9.51703 24.894 8.88 27.5677 9.74293 29.8709C10.5967 32.1495 12.9716 34.1923 18.3035 34.4963C18.2334 34.4104 18.1673 34.3214 18.1052 34.2295C17.387 33.1677 17.24 31.7906 17.4499 30.4583C17.6605 29.1224 18.2359 27.7855 19.0252 26.7652C19.7888 25.7779 20.794 25.0374 21.9072 24.9557V24.9482C21.9411 24.9482 21.975 24.9489 22.0088 24.9501C22.0426 24.9489 22.0764 24.9482 22.1104 24.9482V24.9557C23.2235 25.0374 24.2287 25.7779 24.9924 26.7652C25.7816 27.7855 26.3571 29.1224 26.5676 30.4583C26.7776 31.7906 26.6306 33.1677 25.9123 34.2295C25.8516 34.3193 25.7871 34.4063 25.7188 34.4905C30.9813 34.167 33.3322 32.1353 34.1806 29.8709C35.0341 27.5928 34.4202 24.9523 33.4514 23.2563C30.6766 23.8689 26.9718 24.3319 22.0898 24.3387C22.0871 24.3387 22.0844 24.3388 22.0817 24.3388L22.0789 24.3387L22.0767 24.3387C22.0449 24.3387 22.013 24.3388 21.9811 24.3388C21.9667 24.3388 21.9526 24.3378 21.9387 24.3358C17.0012 24.2297 13.2763 23.7749 10.5043 23.2005ZM12.8602 23.7031C12.7055 23.6368 12.5264 23.7085 12.4601 23.8632C12.3938 24.0179 12.4654 24.197 12.6201 24.2633C14.3731 25.0146 16.5097 25.2394 17.4913 25.1502C17.659 25.1349 17.7825 24.9867 17.7672 24.8191C17.752 24.6515 17.6038 24.5279 17.4362 24.5432C16.5555 24.6232 14.5204 24.4146 12.8602 23.7031ZM31.5514 24.2633C31.7061 24.197 31.7777 24.0179 31.7114 23.8632C31.6451 23.7085 31.466 23.6368 31.3113 23.7031C29.6511 24.4146 27.616 24.6232 26.7353 24.5432C26.5677 24.5279 26.4195 24.6515 26.4042 24.8191C26.389 24.9867 26.5125 25.1349 26.6802 25.1502C27.6618 25.2394 29.7984 25.0146 31.5514 24.2633Z"></path><path d="M22.0322 8.79352L15.2182 12.7574C15.5898 13.1785 15.9376 13.6249 16.2294 14.0295C16.5585 14.4861 16.2813 15.0631 15.8274 15.2232C14.6397 15.6422 13.7306 16.4928 13.2519 17.0902C13.1251 17.2483 12.9407 17.357 12.7395 17.3819C12.5303 17.4077 12.3024 17.3404 12.1418 17.1488C11.7228 16.6485 11.4122 15.8852 11.2636 15.0578L3.8573 19.3662C3.79441 19.4077 3.73303 19.4437 3.67936 19.4747C3.66708 19.4818 3.65537 19.4885 3.64424 19.4949C3.60191 19.5192 3.56715 19.5392 3.53481 19.5594C3.51202 19.5736 3.49536 19.5852 3.48335 19.5941C3.48746 19.6016 3.4926 19.6103 3.49902 19.6205C3.55526 19.7092 3.67423 19.8451 3.90044 20.0492C4.38541 20.4867 5.76965 21.3463 8.62943 22.1274C11.4812 22.9063 15.7826 23.6022 22.0824 23.7292C34.3501 23.7132 39.0387 20.7952 40.196 19.9871C40.4431 19.8145 40.5639 19.696 40.6163 19.6215C40.621 19.6149 40.6247 19.6093 40.6277 19.6044C40.6125 19.5902 40.5851 19.5674 40.5376 19.5356C40.494 19.5065 40.4449 19.4769 40.3862 19.4415L40.386 19.4413C40.332 19.4087 40.2707 19.3718 40.2098 19.3316L32.6403 14.9434C32.5005 15.8145 32.1809 16.6255 31.7426 17.1488C31.5821 17.3404 31.3541 17.4077 31.1449 17.3819C30.9438 17.357 30.7593 17.2483 30.6326 17.0902C30.1538 16.4928 29.2447 15.6422 28.057 15.2232C27.6032 15.0631 27.3259 14.4861 27.6551 14.0295C27.9648 13.5999 28.3378 13.1231 28.7354 12.6796L22.0322 8.79352Z"></path><path d="M31.5162 11.9613C31.4489 11.8492 31.3831 11.7973 31.329 11.7719C31.2748 11.7464 31.2037 11.7341 31.1036 11.749C30.8874 11.7811 30.5944 11.932 30.2434 12.2093C29.5526 12.7551 28.7988 13.6591 28.2319 14.4454C28.2268 14.4525 28.2253 14.4577 28.2248 14.4626C28.2241 14.4685 28.2246 14.478 28.2291 14.4903C28.2389 14.5168 28.2621 14.5415 28.2935 14.5526C29.6451 15.0294 30.6558 15.9822 31.1874 16.6455C31.1958 16.656 31.2056 16.664 31.2148 16.6693L31.2159 16.6699C31.5842 16.216 31.8866 15.4174 31.9789 14.5214C32.0724 13.6148 31.9439 12.6741 31.5162 11.9613Z"></path><path d="M12.3682 11.9613C12.4355 11.8492 12.5014 11.7973 12.5554 11.7719C12.6097 11.7464 12.6808 11.7341 12.7808 11.749C12.997 11.7811 13.29 11.932 13.641 12.2093C14.3318 12.7551 15.0856 13.6591 15.6526 14.4454C15.6577 14.4525 15.6591 14.4577 15.6597 14.4626C15.6603 14.4685 15.6599 14.478 15.6553 14.4903C15.6455 14.5168 15.6224 14.5415 15.5909 14.5526C14.2394 15.0294 13.2286 15.9822 12.697 16.6455C12.6886 16.656 12.6789 16.664 12.6696 16.6693L12.6686 16.6699C12.3002 16.216 11.9979 15.4174 11.9055 14.5214C11.8121 13.6148 11.9405 12.6741 12.3682 11.9613Z"></path></mask><path d="M12.8602 23.7031C12.7055 23.6368 12.5264 23.7085 12.4601 23.8632C12.3938 24.0179 12.4654 24.197 12.6201 24.2633C14.3731 25.0146 16.5097 25.2394 17.4913 25.1502C17.659 25.1349 17.7825 24.9867 17.7672 24.8191C17.752 24.6515 17.6038 24.5279 17.4362 24.5432C16.5555 24.6232 14.5204 24.4146 12.8602 23.7031Z" fill="black" fill-opacity="0.97"></path><path d="M31.5514 24.2633C31.7061 24.197 31.7777 24.0179 31.7114 23.8632C31.6451 23.7085 31.466 23.6368 31.3113 23.7031C29.6511 24.4146 27.616 24.6232 26.7353 24.5432C26.5677 24.5279 26.4195 24.6515 26.4042 24.8191C26.389 24.9867 26.5125 25.1349 26.6802 25.1502C27.6618 25.2394 29.7984 25.0146 31.5514 24.2633Z" fill="black" fill-opacity="0.97"></path><path d="M19.9086 27.411C20.0072 27.2745 20.1977 27.2438 20.3341 27.3423L21.9842 28.534L23.6342 27.3423C23.7707 27.2438 23.9612 27.2745 24.0597 27.411C24.1582 27.5474 24.1275 27.7379 23.9911 27.8364L22.2889 29.0658V30.7384C22.2889 30.9068 22.1525 31.0432 21.9842 31.0432C21.8159 31.0432 21.6794 30.9068 21.6794 30.7384V29.0658L19.9773 27.8364C19.8408 27.7379 19.8101 27.5474 19.9086 27.411Z" fill="black" fill-opacity="0.97"></path><path fill-rule="evenodd" clip-rule="evenodd" d="M29.8026 11.6514C29.5908 11.8187 29.3767 12.0134 29.1655 12.2244L22.1898 8.18037C22.1795 8.17418 22.1689 8.16862 22.1581 8.1637C22.1174 8.14512 22.0743 8.13625 22.0317 8.13632C21.9892 8.13631 21.9463 8.14519 21.9057 8.16371C21.8947 8.1687 21.884 8.17434 21.8736 8.18063L14.7933 12.2994C14.5581 12.0595 14.3185 11.8384 14.0818 11.6514C13.703 11.352 13.2896 11.1058 12.8855 11.0456C12.6755 11.0144 12.458 11.032 12.253 11.1284C12.0478 11.2248 11.8838 11.3866 11.7585 11.5955C11.2611 12.4244 11.1132 13.4492 11.1813 14.4006L3.53501 18.8485L3.52726 18.8537C3.47867 18.8861 3.42837 18.9159 3.37484 18.9467C3.36539 18.9522 3.35562 18.9578 3.34563 18.9635C3.30224 18.9884 3.25479 19.0157 3.21181 19.0425C3.11773 19.1013 2.96322 19.2047 2.89405 19.3815C2.81386 19.5864 2.88122 19.7841 2.98416 19.9466C3.08611 20.1076 3.25564 20.2883 3.49216 20.5017C4.07684 21.0292 5.56383 21.9219 8.46884 22.7154C8.87626 22.8266 9.31192 22.9361 9.77731 23.0423C8.78131 24.8682 8.15208 27.6516 9.07706 30.1204C10.0634 32.7528 12.7624 34.8978 18.2849 35.2075L18.2948 35.2081H19.0767C19.7853 35.6955 20.7223 35.9883 21.9072 36.0182V36.0207C21.9412 36.0207 21.9751 36.0205 22.0088 36.0201C22.0424 36.0205 22.0763 36.0207 22.1104 36.0207V36.0182C23.2952 35.9883 24.2322 35.6955 24.9409 35.2081H25.6287L25.6386 35.2075C31.1611 34.8978 33.8602 32.7528 34.8465 30.1204C35.7636 27.6726 35.1528 24.9155 34.1715 23.089C37.9424 22.1691 39.8189 20.9938 40.5449 20.4868C40.8084 20.3028 41.0001 20.1353 41.1149 19.9721C41.2381 19.797 41.2947 19.5897 41.2049 19.3808C41.1313 19.2097 40.9802 19.0984 40.8764 19.029C40.8206 18.9917 40.7608 18.9556 40.7066 18.9229L40.7065 18.9229L40.7063 18.9228L40.7061 18.9226L40.701 18.9196C40.6431 18.8846 40.5899 18.8524 40.5391 18.8187L40.5314 18.8135L32.7106 14.2796C32.7581 13.363 32.6023 12.3893 32.126 11.5955C32.0006 11.3866 31.8366 11.2248 31.6314 11.1284C31.4264 11.032 31.2089 11.0144 30.9989 11.0456C30.5948 11.1058 30.1814 11.352 29.8026 11.6514ZM15.2182 12.7574L22.0322 8.79352L28.7354 12.6796C28.3378 13.1231 27.9648 13.5999 27.6551 14.0295C27.3259 14.4861 27.6032 15.0631 28.057 15.2232C29.2447 15.6422 30.1538 16.4928 30.6326 17.0902C30.7593 17.2483 30.9438 17.357 31.1449 17.3819C31.3541 17.4077 31.5821 17.3404 31.7426 17.1488C32.1809 16.6255 32.5005 15.8145 32.6403 14.9434L40.2098 19.3316C40.2707 19.3718 40.332 19.4087 40.386 19.4413L40.3862 19.4415C40.4449 19.4769 40.494 19.5065 40.5376 19.5356C40.5851 19.5674 40.6125 19.5902 40.6277 19.6044C40.6247 19.6093 40.621 19.6149 40.6163 19.6215C40.5639 19.696 40.4431 19.8145 40.196 19.9871C39.0387 20.7952 34.3501 23.7132 22.0824 23.7292C15.7826 23.6022 11.4812 22.9063 8.62943 22.1274C5.76965 21.3463 4.38541 20.4867 3.90044 20.0492C3.67423 19.8451 3.55526 19.7092 3.49902 19.6205C3.4926 19.6103 3.48746 19.6016 3.48335 19.5941C3.49536 19.5852 3.51202 19.5736 3.53481 19.5594C3.56715 19.5392 3.60191 19.5192 3.64424 19.4949C3.65537 19.4885 3.66708 19.4818 3.67936 19.4747C3.73303 19.4437 3.79441 19.4077 3.8573 19.3662L11.2636 15.0578C11.4122 15.8852 11.7228 16.6485 12.1418 17.1488C12.3024 17.3404 12.5303 17.4077 12.7395 17.3819C12.9407 17.357 13.1251 17.2483 13.2519 17.0902C13.7306 16.4928 14.6397 15.6422 15.8274 15.2232C16.2813 15.0631 16.5585 14.4861 16.2294 14.0295C15.9376 13.6249 15.5898 13.1785 15.2182 12.7574ZM9.74293 29.8709C8.88 27.5677 9.51703 24.894 10.5043 23.2005C13.2763 23.7749 17.0012 24.2297 21.9387 24.3358C21.9526 24.3378 21.9667 24.3388 21.9811 24.3388C22.013 24.3388 22.0449 24.3387 22.0767 24.3387L22.0789 24.3387L22.0817 24.3388C22.0844 24.3388 22.0871 24.3387 22.0898 24.3387C26.9718 24.3319 30.6766 23.8689 33.4514 23.2563C34.4202 24.9523 35.0341 27.5928 34.1806 29.8709C33.3322 32.1353 30.9813 34.167 25.7188 34.4905C25.7871 34.4063 25.8516 34.3193 25.9123 34.2295C26.6306 33.1677 26.7776 31.7906 26.5676 30.4583C26.3571 29.1224 25.7816 27.7855 24.9924 26.7652C24.2287 25.7779 23.2235 25.0374 22.1104 24.9557V24.9482C22.0764 24.9482 22.0426 24.9489 22.0088 24.9501C21.975 24.9489 21.9411 24.9482 21.9072 24.9482V24.9557C20.794 25.0374 19.7888 25.7779 19.0252 26.7652C18.2359 27.7855 17.6605 29.1224 17.4499 30.4583C17.24 31.7906 17.387 33.1677 18.1052 34.2295C18.1673 34.3214 18.2334 34.4104 18.3035 34.4963C12.9716 34.1923 10.5967 32.1495 9.74293 29.8709ZM40.6396 19.5823L40.6398 19.5816C40.6399 19.5812 40.64 19.5809 40.64 19.5809L40.64 19.5811L40.6399 19.5816L40.6396 19.5823ZM3.46775 19.5586L3.46782 19.5588L3.46795 19.5592C3.46807 19.5597 3.46822 19.5604 3.46836 19.5614C3.46778 19.5595 3.46775 19.5586 3.46775 19.5586ZM12.5554 11.7719C12.5014 11.7973 12.4355 11.8492 12.3682 11.9613C11.9405 12.6741 11.8121 13.6148 11.9055 14.5214C11.9979 15.4174 12.3002 16.216 12.6686 16.6699L12.6696 16.6693C12.6789 16.664 12.6886 16.656 12.697 16.6455C13.2286 15.9822 14.2394 15.0294 15.5909 14.5526C15.6224 14.5415 15.6455 14.5168 15.6553 14.4903C15.6599 14.478 15.6603 14.4685 15.6597 14.4626C15.6591 14.4577 15.6577 14.4525 15.6526 14.4454C15.0856 13.6591 14.3318 12.7551 13.641 12.2093C13.29 11.932 12.997 11.7811 12.7808 11.749C12.6808 11.7341 12.6097 11.7464 12.5554 11.7719ZM31.329 11.7719C31.3831 11.7973 31.4489 11.8492 31.5162 11.9613C31.9439 12.6741 32.0724 13.6148 31.9789 14.5214C31.8866 15.4174 31.5842 16.216 31.2159 16.6699L31.2148 16.6693C31.2056 16.664 31.1958 16.656 31.1874 16.6455C30.6558 15.9822 29.6451 15.0294 28.2935 14.5526C28.2621 14.5415 28.2389 14.5168 28.2291 14.4903C28.2246 14.478 28.2241 14.4685 28.2248 14.4626C28.2253 14.4577 28.2268 14.4525 28.2319 14.4454C28.7988 13.6591 29.5526 12.7551 30.2434 12.2093C30.5944 11.932 30.8874 11.7811 31.1036 11.749C31.2037 11.7341 31.2748 11.7464 31.329 11.7719ZM19.5876 27.2003C20.3033 26.275 21.1621 25.704 22.0088 25.6619C22.8555 25.704 23.7143 26.275 24.4299 27.2003C25.144 28.1234 25.6728 29.3481 25.8652 30.569C26.0582 31.7935 25.9069 32.9684 25.3233 33.8311C24.7517 34.6762 23.7217 35.2857 22.0088 35.309C20.2959 35.2857 19.2658 34.6762 18.6942 33.8311C18.1107 32.9684 17.9594 31.7935 18.1524 30.569C18.3448 29.3481 18.8736 28.1234 19.5876 27.2003Z" fill="black" fill-opacity="0.97"></path><path fill-rule="evenodd" clip-rule="evenodd" d="M22.0088 25.6619C21.1621 25.704 20.3033 26.275 19.5876 27.2003C18.8736 28.1234 18.3448 29.3481 18.1524 30.569C17.9594 31.7935 18.1107 32.9684 18.6942 33.8311C19.2658 34.6762 20.2959 35.2857 22.0088 35.309C23.7217 35.2857 24.7517 34.6762 25.3233 33.8311C25.9069 32.9684 26.0582 31.7935 25.8652 30.569C25.6728 29.3481 25.144 28.1234 24.4299 27.2003C23.7143 26.275 22.8555 25.704 22.0088 25.6619ZM19.9086 27.411C20.0072 27.2745 20.1977 27.2438 20.3341 27.3423L21.9842 28.534L23.6342 27.3423C23.7707 27.2438 23.9612 27.2745 24.0597 27.411C24.1582 27.5474 24.1275 27.7379 23.9911 27.8364L22.2889 29.0658V30.7384C22.2889 30.9068 22.1525 31.0432 21.9842 31.0432C21.8159 31.0432 21.6794 30.9068 21.6794 30.7384V29.0658L19.9773 27.8364C19.8408 27.7379 19.8101 27.5474 19.9086 27.411Z" fill="#D5866D"></path><path fill-rule="evenodd" clip-rule="evenodd" d="M10.5043 23.2005C9.51703 24.894 8.88 27.5677 9.74293 29.8709C10.5967 32.1495 12.9716 34.1923 18.3035 34.4963C18.2334 34.4104 18.1673 34.3214 18.1052 34.2295C17.387 33.1677 17.24 31.7906 17.4499 30.4583C17.6605 29.1224 18.2359 27.7855 19.0252 26.7652C19.7888 25.7779 20.794 25.0374 21.9072 24.9557V24.9482C21.9411 24.9482 21.975 24.9489 22.0088 24.9501C22.0426 24.9489 22.0764 24.9482 22.1104 24.9482V24.9557C23.2235 25.0374 24.2287 25.7779 24.9924 26.7652C25.7816 27.7855 26.3571 29.1224 26.5676 30.4583C26.7776 31.7906 26.6306 33.1677 25.9123 34.2295C25.8516 34.3193 25.7871 34.4063 25.7188 34.4905C30.9813 34.167 33.3322 32.1353 34.1806 29.8709C35.0341 27.5928 34.4202 24.9523 33.4514 23.2563C30.6766 23.8689 26.9718 24.3319 22.0898 24.3387C22.0871 24.3387 22.0844 24.3388 22.0817 24.3388L22.0789 24.3387L22.0767 24.3387C22.0449 24.3387 22.013 24.3388 21.9811 24.3388C21.9667 24.3388 21.9526 24.3378 21.9387 24.3358C17.0012 24.2297 13.2763 23.7749 10.5043 23.2005ZM12.8602 23.7031C12.7055 23.6368 12.5264 23.7085 12.4601 23.8632C12.3938 24.0179 12.4654 24.197 12.6201 24.2633C14.3731 25.0146 16.5097 25.2394 17.4913 25.1502C17.659 25.1349 17.7825 24.9867 17.7672 24.8191C17.752 24.6515 17.6038 24.5279 17.4362 24.5432C16.5555 24.6232 14.5204 24.4146 12.8602 23.7031ZM31.5514 24.2633C31.7061 24.197 31.7777 24.0179 31.7114 23.8632C31.6451 23.7085 31.466 23.6368 31.3113 23.7031C29.6511 24.4146 27.616 24.6232 26.7353 24.5432C26.5677 24.5279 26.4195 24.6515 26.4042 24.8191C26.389 24.9867 26.5125 25.1349 26.6802 25.1502C27.6618 25.2394 29.7984 25.0146 31.5514 24.2633Z" fill="#FABF88"></path><path d="M22.0322 8.79352L15.2182 12.7574C15.5898 13.1785 15.9376 13.6249 16.2294 14.0295C16.5585 14.4861 16.2813 15.0631 15.8274 15.2232C14.6397 15.6422 13.7306 16.4928 13.2519 17.0902C13.1251 17.2483 12.9407 17.357 12.7395 17.3819C12.5303 17.4077 12.3024 17.3404 12.1418 17.1488C11.7228 16.6485 11.4122 15.8852 11.2636 15.0578L3.8573 19.3662C3.79441 19.4077 3.73303 19.4437 3.67936 19.4747C3.66708 19.4818 3.65537 19.4885 3.64424 19.4949C3.60191 19.5192 3.56715 19.5392 3.53481 19.5594C3.51202 19.5736 3.49536 19.5852 3.48335 19.5941C3.48746 19.6016 3.4926 19.6103 3.49902 19.6205C3.55526 19.7092 3.67423 19.8451 3.90044 20.0492C4.38541 20.4867 5.76965 21.3463 8.62943 22.1274C11.4812 22.9063 15.7826 23.6022 22.0824 23.7292C34.3501 23.7132 39.0387 20.7952 40.196 19.9871C40.4431 19.8145 40.5639 19.696 40.6163 19.6215C40.621 19.6149 40.6247 19.6093 40.6277 19.6044C40.6125 19.5902 40.5851 19.5674 40.5376 19.5356C40.494 19.5065 40.4449 19.4769 40.3862 19.4415L40.386 19.4413C40.332 19.4087 40.2707 19.3718 40.2098 19.3316L32.6403 14.9434C32.5005 15.8145 32.1809 16.6255 31.7426 17.1488C31.5821 17.3404 31.3541 17.4077 31.1449 17.3819C30.9438 17.357 30.7593 17.2483 30.6326 17.0902C30.1538 16.4928 29.2447 15.6422 28.057 15.2232C27.6032 15.0631 27.3259 14.4861 27.6551 14.0295C27.9648 13.5999 28.3378 13.1231 28.7354 12.6796L22.0322 8.79352Z" fill="#FFCBCE"></path><path d="M31.5162 11.9613C31.4489 11.8492 31.3831 11.7973 31.329 11.7719C31.2748 11.7464 31.2037 11.7341 31.1036 11.749C30.8874 11.7811 30.5944 11.932 30.2434 12.2093C29.5526 12.7551 28.7988 13.6591 28.2319 14.4454C28.2268 14.4525 28.2253 14.4577 28.2248 14.4626C28.2241 14.4685 28.2246 14.478 28.2291 14.4903C28.2389 14.5168 28.2621 14.5415 28.2935 14.5526C29.6451 15.0294 30.6558 15.9822 31.1874 16.6455C31.1958 16.656 31.2056 16.664 31.2148 16.6693L31.2159 16.6699C31.5842 16.216 31.8866 15.4174 31.9789 14.5214C32.0724 13.6148 31.9439 12.6741 31.5162 11.9613Z" fill="#FABF88"></path><path d="M12.3682 11.9613C12.4355 11.8492 12.5014 11.7973 12.5554 11.7719C12.6097 11.7464 12.6808 11.7341 12.7808 11.749C12.997 11.7811 13.29 11.932 13.641 12.2093C14.3318 12.7551 15.0856 13.6591 15.6526 14.4454C15.6577 14.4525 15.6591 14.4577 15.6597 14.4626C15.6603 14.4685 15.6599 14.478 15.6553 14.4903C15.6455 14.5168 15.6224 14.5415 15.5909 14.5526C14.2394 15.0294 13.2286 15.9822 12.697 16.6455C12.6886 16.656 12.6789 16.664 12.6696 16.6693L12.6686 16.6699C12.3002 16.216 11.9979 15.4174 11.9055 14.5214C11.8121 13.6148 11.9405 12.6741 12.3682 11.9613Z" fill="#FABF88"></path><path d="M12.8602 23.7031C12.7055 23.6368 12.5264 23.7085 12.4601 23.8632C12.3938 24.0179 12.4654 24.197 12.6201 24.2633C14.3731 25.0146 16.5097 25.2394 17.4913 25.1502C17.659 25.1349 17.7825 24.9867 17.7672 24.8191C17.752 24.6515 17.6038 24.5279 17.4362 24.5432C16.5555 24.6232 14.5204 24.4146 12.8602 23.7031Z" stroke="black" stroke-width="1.0995" stroke-linecap="round" mask="url(#path-2-outside-1_1213_4511)"></path><path d="M31.5514 24.2633C31.7061 24.197 31.7777 24.0179 31.7114 23.8632C31.6451 23.7085 31.466 23.6368 31.3113 23.7031C29.6511 24.4146 27.616 24.6232 26.7353 24.5432C26.5677 24.5279 26.4195 24.6515 26.4042 24.8191C26.389 24.9867 26.5125 25.1349 26.6802 25.1502C27.6618 25.2394 29.7984 25.0146 31.5514 24.2633Z" stroke="black" stroke-width="1.0995" stroke-linecap="round" mask="url(#path-2-outside-1_1213_4511)"></path><path d="M19.9086 27.411C20.0072 27.2745 20.1977 27.2438 20.3341 27.3423L21.9842 28.534L23.6342 27.3423C23.7707 27.2438 23.9612 27.2745 24.0597 27.411C24.1582 27.5474 24.1275 27.7379 23.9911 27.8364L22.2889 29.0658V30.7384C22.2889 30.9068 22.1525 31.0432 21.9842 31.0432C21.8159 31.0432 21.6794 30.9068 21.6794 30.7384V29.0658L19.9773 27.8364C19.8408 27.7379 19.8101 27.5474 19.9086 27.411Z" stroke="black" stroke-width="1.0995" stroke-linecap="round" mask="url(#path-2-outside-1_1213_4511)"></path><path fill-rule="evenodd" clip-rule="evenodd" d="M29.8026 11.6514C29.5908 11.8187 29.3767 12.0134 29.1655 12.2244L22.1898 8.18037C22.1795 8.17418 22.1689 8.16862 22.1581 8.1637C22.1174 8.14512 22.0743 8.13625 22.0317 8.13632C21.9892 8.13631 21.9463 8.14519 21.9057 8.16371C21.8947 8.1687 21.884 8.17434 21.8736 8.18063L14.7933 12.2994C14.5581 12.0595 14.3185 11.8384 14.0818 11.6514C13.703 11.352 13.2896 11.1058 12.8855 11.0456C12.6755 11.0144 12.458 11.032 12.253 11.1284C12.0478 11.2248 11.8838 11.3866 11.7585 11.5955C11.2611 12.4244 11.1132 13.4492 11.1813 14.4006L3.53501 18.8485L3.52726 18.8537C3.47867 18.8861 3.42837 18.9159 3.37484 18.9467C3.36539 18.9522 3.35562 18.9578 3.34563 18.9635C3.30224 18.9884 3.25479 19.0157 3.21181 19.0425C3.11773 19.1013 2.96322 19.2047 2.89405 19.3815C2.81386 19.5864 2.88122 19.7841 2.98416 19.9466C3.08611 20.1076 3.25564 20.2883 3.49216 20.5017C4.07684 21.0292 5.56383 21.9219 8.46884 22.7154C8.87626 22.8266 9.31192 22.9361 9.77731 23.0423C8.78131 24.8682 8.15208 27.6516 9.07706 30.1204C10.0634 32.7528 12.7624 34.8978 18.2849 35.2075L18.2948 35.2081H19.0767C19.7853 35.6955 20.7223 35.9883 21.9072 36.0182V36.0207C21.9412 36.0207 21.9751 36.0205 22.0088 36.0201C22.0424 36.0205 22.0763 36.0207 22.1104 36.0207V36.0182C23.2952 35.9883 24.2322 35.6955 24.9409 35.2081H25.6287L25.6386 35.2075C31.1611 34.8978 33.8602 32.7528 34.8465 30.1204C35.7636 27.6726 35.1528 24.9155 34.1715 23.089C37.9424 22.1691 39.8189 20.9938 40.5449 20.4868C40.8084 20.3028 41.0001 20.1353 41.1149 19.9721C41.2381 19.797 41.2947 19.5897 41.2049 19.3808C41.1313 19.2097 40.9802 19.0984 40.8764 19.029C40.8206 18.9917 40.7608 18.9556 40.7066 18.9229L40.7065 18.9229L40.7063 18.9228L40.7061 18.9226L40.701 18.9196C40.6431 18.8846 40.5899 18.8524 40.5391 18.8187L40.5314 18.8135L32.7106 14.2796C32.7581 13.363 32.6023 12.3893 32.126 11.5955C32.0006 11.3866 31.8366 11.2248 31.6314 11.1284C31.4264 11.032 31.2089 11.0144 30.9989 11.0456C30.5948 11.1058 30.1814 11.352 29.8026 11.6514ZM15.2182 12.7574L22.0322 8.79352L28.7354 12.6796C28.3378 13.1231 27.9648 13.5999 27.6551 14.0295C27.3259 14.4861 27.6032 15.0631 28.057 15.2232C29.2447 15.6422 30.1538 16.4928 30.6326 17.0902C30.7593 17.2483 30.9438 17.357 31.1449 17.3819C31.3541 17.4077 31.5821 17.3404 31.7426 17.1488C32.1809 16.6255 32.5005 15.8145 32.6403 14.9434L40.2098 19.3316C40.2707 19.3718 40.332 19.4087 40.386 19.4413L40.3862 19.4415C40.4449 19.4769 40.494 19.5065 40.5376 19.5356C40.5851 19.5674 40.6125 19.5902 40.6277 19.6044C40.6247 19.6093 40.621 19.6149 40.6163 19.6215C40.5639 19.696 40.4431 19.8145 40.196 19.9871C39.0387 20.7952 34.3501 23.7132 22.0824 23.7292C15.7826 23.6022 11.4812 22.9063 8.62943 22.1274C5.76965 21.3463 4.38541 20.4867 3.90044 20.0492C3.67423 19.8451 3.55526 19.7092 3.49902 19.6205C3.4926 19.6103 3.48746 19.6016 3.48335 19.5941C3.49536 19.5852 3.51202 19.5736 3.53481 19.5594C3.56715 19.5392 3.60191 19.5192 3.64424 19.4949C3.65537 19.4885 3.66708 19.4818 3.67936 19.4747C3.73303 19.4437 3.79441 19.4077 3.8573 19.3662L11.2636 15.0578C11.4122 15.8852 11.7228 16.6485 12.1418 17.1488C12.3024 17.3404 12.5303 17.4077 12.7395 17.3819C12.9407 17.357 13.1251 17.2483 13.2519 17.0902C13.7306 16.4928 14.6397 15.6422 15.8274 15.2232C16.2813 15.0631 16.5585 14.4861 16.2294 14.0295C15.9376 13.6249 15.5898 13.1785 15.2182 12.7574ZM9.74293 29.8709C8.88 27.5677 9.51703 24.894 10.5043 23.2005C13.2763 23.7749 17.0012 24.2297 21.9387 24.3358C21.9526 24.3378 21.9667 24.3388 21.9811 24.3388C22.013 24.3388 22.0449 24.3387 22.0767 24.3387L22.0789 24.3387L22.0817 24.3388C22.0844 24.3388 22.0871 24.3387 22.0898 24.3387C26.9718 24.3319 30.6766 23.8689 33.4514 23.2563C34.4202 24.9523 35.0341 27.5928 34.1806 29.8709C33.3322 32.1353 30.9813 34.167 25.7188 34.4905C25.7871 34.4063 25.8516 34.3193 25.9123 34.2295C26.6306 33.1677 26.7776 31.7906 26.5676 30.4583C26.3571 29.1224 25.7816 27.7855 24.9924 26.7652C24.2287 25.7779 23.2235 25.0374 22.1104 24.9557V24.9482C22.0764 24.9482 22.0426 24.9489 22.0088 24.9501C21.975 24.9489 21.9411 24.9482 21.9072 24.9482V24.9557C20.794 25.0374 19.7888 25.7779 19.0252 26.7652C18.2359 27.7855 17.6605 29.1224 17.4499 30.4583C17.24 31.7906 17.387 33.1677 18.1052 34.2295C18.1673 34.3214 18.2334 34.4104 18.3035 34.4963C12.9716 34.1923 10.5967 32.1495 9.74293 29.8709ZM40.6396 19.5823L40.6398 19.5816C40.6399 19.5812 40.64 19.5809 40.64 19.5809L40.64 19.5811L40.6399 19.5816L40.6396 19.5823ZM3.46775 19.5586L3.46782 19.5588L3.46795 19.5592C3.46807 19.5597 3.46822 19.5604 3.46836 19.5614C3.46778 19.5595 3.46775 19.5586 3.46775 19.5586ZM12.5554 11.7719C12.5014 11.7973 12.4355 11.8492 12.3682 11.9613C11.9405 12.6741 11.8121 13.6148 11.9055 14.5214C11.9979 15.4174 12.3002 16.216 12.6686 16.6699L12.6696 16.6693C12.6789 16.664 12.6886 16.656 12.697 16.6455C13.2286 15.9822 14.2394 15.0294 15.5909 14.5526C15.6224 14.5415 15.6455 14.5168 15.6553 14.4903C15.6599 14.478 15.6603 14.4685 15.6597 14.4626C15.6591 14.4577 15.6577 14.4525 15.6526 14.4454C15.0856 13.6591 14.3318 12.7551 13.641 12.2093C13.29 11.932 12.997 11.7811 12.7808 11.749C12.6808 11.7341 12.6097 11.7464 12.5554 11.7719ZM31.329 11.7719C31.3831 11.7973 31.4489 11.8492 31.5162 11.9613C31.9439 12.6741 32.0724 13.6148 31.9789 14.5214C31.8866 15.4174 31.5842 16.216 31.2159 16.6699L31.2148 16.6693C31.2056 16.664 31.1958 16.656 31.1874 16.6455C30.6558 15.9822 29.6451 15.0294 28.2935 14.5526C28.2621 14.5415 28.2389 14.5168 28.2291 14.4903C28.2246 14.478 28.2241 14.4685 28.2248 14.4626C28.2253 14.4577 28.2268 14.4525 28.2319 14.4454C28.7988 13.6591 29.5526 12.7551 30.2434 12.2093C30.5944 11.932 30.8874 11.7811 31.1036 11.749C31.2037 11.7341 31.2748 11.7464 31.329 11.7719ZM19.5876 27.2003C20.3033 26.275 21.1621 25.704 22.0088 25.6619C22.8555 25.704 23.7143 26.275 24.4299 27.2003C25.144 28.1234 25.6728 29.3481 25.8652 30.569C26.0582 31.7935 25.9069 32.9684 25.3233 33.8311C24.7517 34.6762 23.7217 35.2857 22.0088 35.309C20.2959 35.2857 19.2658 34.6762 18.6942 33.8311C18.1107 32.9684 17.9594 31.7935 18.1524 30.569C18.3448 29.3481 18.8736 28.1234 19.5876 27.2003Z" stroke="black" stroke-width="1.0995" stroke-linecap="round" mask="url(#path-2-outside-1_1213_4511)"></path><path fill-rule="evenodd" clip-rule="evenodd" d="M22.0088 25.6619C21.1621 25.704 20.3033 26.275 19.5876 27.2003C18.8736 28.1234 18.3448 29.3481 18.1524 30.569C17.9594 31.7935 18.1107 32.9684 18.6942 33.8311C19.2658 34.6762 20.2959 35.2857 22.0088 35.309C23.7217 35.2857 24.7517 34.6762 25.3233 33.8311C25.9069 32.9684 26.0582 31.7935 25.8652 30.569C25.6728 29.3481 25.144 28.1234 24.4299 27.2003C23.7143 26.275 22.8555 25.704 22.0088 25.6619ZM19.9086 27.411C20.0072 27.2745 20.1977 27.2438 20.3341 27.3423L21.9842 28.534L23.6342 27.3423C23.7707 27.2438 23.9612 27.2745 24.0597 27.411C24.1582 27.5474 24.1275 27.7379 23.9911 27.8364L22.2889 29.0658V30.7384C22.2889 30.9068 22.1525 31.0432 21.9842 31.0432C21.8159 31.0432 21.6794 30.9068 21.6794 30.7384V29.0658L19.9773 27.8364C19.8408 27.7379 19.8101 27.5474 19.9086 27.411Z" stroke="black" stroke-width="1.0995" stroke-linecap="round" mask="url(#path-2-outside-1_1213_4511)"></path><path fill-rule="evenodd" clip-rule="evenodd" d="M10.5043 23.2005C9.51703 24.894 8.88 27.5677 9.74293 29.8709C10.5967 32.1495 12.9716 34.1923 18.3035 34.4963C18.2334 34.4104 18.1673 34.3214 18.1052 34.2295C17.387 33.1677 17.24 31.7906 17.4499 30.4583C17.6605 29.1224 18.2359 27.7855 19.0252 26.7652C19.7888 25.7779 20.794 25.0374 21.9072 24.9557V24.9482C21.9411 24.9482 21.975 24.9489 22.0088 24.9501C22.0426 24.9489 22.0764 24.9482 22.1104 24.9482V24.9557C23.2235 25.0374 24.2287 25.7779 24.9924 26.7652C25.7816 27.7855 26.3571 29.1224 26.5676 30.4583C26.7776 31.7906 26.6306 33.1677 25.9123 34.2295C25.8516 34.3193 25.7871 34.4063 25.7188 34.4905C30.9813 34.167 33.3322 32.1353 34.1806 29.8709C35.0341 27.5928 34.4202 24.9523 33.4514 23.2563C30.6766 23.8689 26.9718 24.3319 22.0898 24.3387C22.0871 24.3387 22.0844 24.3388 22.0817 24.3388L22.0789 24.3387L22.0767 24.3387C22.0449 24.3387 22.013 24.3388 21.9811 24.3388C21.9667 24.3388 21.9526 24.3378 21.9387 24.3358C17.0012 24.2297 13.2763 23.7749 10.5043 23.2005ZM12.8602 23.7031C12.7055 23.6368 12.5264 23.7085 12.4601 23.8632C12.3938 24.0179 12.4654 24.197 12.6201 24.2633C14.3731 25.0146 16.5097 25.2394 17.4913 25.1502C17.659 25.1349 17.7825 24.9867 17.7672 24.8191C17.752 24.6515 17.6038 24.5279 17.4362 24.5432C16.5555 24.6232 14.5204 24.4146 12.8602 23.7031ZM31.5514 24.2633C31.7061 24.197 31.7777 24.0179 31.7114 23.8632C31.6451 23.7085 31.466 23.6368 31.3113 23.7031C29.6511 24.4146 27.616 24.6232 26.7353 24.5432C26.5677 24.5279 26.4195 24.6515 26.4042 24.8191C26.389 24.9867 26.5125 25.1349 26.6802 25.1502C27.6618 25.2394 29.7984 25.0146 31.5514 24.2633Z" stroke="black" stroke-width="1.0995" stroke-linecap="round" mask="url(#path-2-outside-1_1213_4511)"></path><path d="M22.0322 8.79352L15.2182 12.7574C15.5898 13.1785 15.9376 13.6249 16.2294 14.0295C16.5585 14.4861 16.2813 15.0631 15.8274 15.2232C14.6397 15.6422 13.7306 16.4928 13.2519 17.0902C13.1251 17.2483 12.9407 17.357 12.7395 17.3819C12.5303 17.4077 12.3024 17.3404 12.1418 17.1488C11.7228 16.6485 11.4122 15.8852 11.2636 15.0578L3.8573 19.3662C3.79441 19.4077 3.73303 19.4437 3.67936 19.4747C3.66708 19.4818 3.65537 19.4885 3.64424 19.4949C3.60191 19.5192 3.56715 19.5392 3.53481 19.5594C3.51202 19.5736 3.49536 19.5852 3.48335 19.5941C3.48746 19.6016 3.4926 19.6103 3.49902 19.6205C3.55526 19.7092 3.67423 19.8451 3.90044 20.0492C4.38541 20.4867 5.76965 21.3463 8.62943 22.1274C11.4812 22.9063 15.7826 23.6022 22.0824 23.7292C34.3501 23.7132 39.0387 20.7952 40.196 19.9871C40.4431 19.8145 40.5639 19.696 40.6163 19.6215C40.621 19.6149 40.6247 19.6093 40.6277 19.6044C40.6125 19.5902 40.5851 19.5674 40.5376 19.5356C40.494 19.5065 40.4449 19.4769 40.3862 19.4415L40.386 19.4413C40.332 19.4087 40.2707 19.3718 40.2098 19.3316L32.6403 14.9434C32.5005 15.8145 32.1809 16.6255 31.7426 17.1488C31.5821 17.3404 31.3541 17.4077 31.1449 17.3819C30.9438 17.357 30.7593 17.2483 30.6326 17.0902C30.1538 16.4928 29.2447 15.6422 28.057 15.2232C27.6032 15.0631 27.3259 14.4861 27.6551 14.0295C27.9648 13.5999 28.3378 13.1231 28.7354 12.6796L22.0322 8.79352Z" stroke="black" stroke-width="1.0995" stroke-linecap="round" mask="url(#path-2-outside-1_1213_4511)"></path><path d="M31.5162 11.9613C31.4489 11.8492 31.3831 11.7973 31.329 11.7719C31.2748 11.7464 31.2037 11.7341 31.1036 11.749C30.8874 11.7811 30.5944 11.932 30.2434 12.2093C29.5526 12.7551 28.7988 13.6591 28.2319 14.4454C28.2268 14.4525 28.2253 14.4577 28.2248 14.4626C28.2241 14.4685 28.2246 14.478 28.2291 14.4903C28.2389 14.5168 28.2621 14.5415 28.2935 14.5526C29.6451 15.0294 30.6558 15.9822 31.1874 16.6455C31.1958 16.656 31.2056 16.664 31.2148 16.6693L31.2159 16.6699C31.5842 16.216 31.8866 15.4174 31.9789 14.5214C32.0724 13.6148 31.9439 12.6741 31.5162 11.9613Z" stroke="black" stroke-width="1.0995" stroke-linecap="round" mask="url(#path-2-outside-1_1213_4511)"></path><path d="M12.3682 11.9613C12.4355 11.8492 12.5014 11.7973 12.5554 11.7719C12.6097 11.7464 12.6808 11.7341 12.7808 11.749C12.997 11.7811 13.29 11.932 13.641 12.2093C14.3318 12.7551 15.0856 13.6591 15.6526 14.4454C15.6577 14.4525 15.6591 14.4577 15.6597 14.4626C15.6603 14.4685 15.6599 14.478 15.6553 14.4903C15.6455 14.5168 15.6224 14.5415 15.5909 14.5526C14.2394 15.0294 13.2286 15.9822 12.697 16.6455C12.6886 16.656 12.6789 16.664 12.6696 16.6693L12.6686 16.6699C12.3002 16.216 11.9979 15.4174 11.9055 14.5214C11.8121 13.6148 11.9405 12.6741 12.3682 11.9613Z" stroke="black" stroke-width="1.0995" stroke-linecap="round" mask="url(#path-2-outside-1_1213_4511)"></path><defs><linearGradient id="paint0_linear_1213_4511" x1="22.5" y1="-26.7537" x2="22.5" y2="51.9963" gradientUnits="userSpaceOnUse"><stop offset="0.26" stop-color="#57CDF3"></stop><stop offset="1" stop-color="#F576C2"></stop></linearGradient></defs></svg>